<svg width="73" height="38" viewBox="0 0 73 38" fill="none" xmlns="http://www.w3.org/2000/svg">
<path d="M14.104 12.0112C14.104 12.6606 13.9775 13.2314 13.7246 13.7236C13.4717 14.209 13.1333 14.6294 12.7095 14.9849C12.2925 15.3403 11.8071 15.6343 11.2534 15.8667C10.6997 16.0923 10.1221 16.2734 9.52051 16.4102C8.92578 16.5469 8.32422 16.6426 7.71582 16.6973C7.11426 16.752 6.54688 16.7793 6.01367 16.7793C5.34375 16.7793 4.72852 16.7588 4.16797 16.7178C3.61426 16.6836 3.10156 16.6289 2.62988 16.5537C2.1582 16.4854 1.7207 16.3965 1.31738 16.2871C0.920898 16.1846 0.541504 16.0684 0.179199 15.9385C0.240723 14.6807 0.288574 13.4604 0.322754 12.2778C0.36377 11.0952 0.384277 9.90576 0.384277 8.70947C0.384277 7.52002 0.36377 6.32031 0.322754 5.11035C0.288574 3.89355 0.240723 2.62891 0.179199 1.31641C1.11572 1.10449 2.0625 0.937012 3.01953 0.813965C3.9834 0.690918 4.97461 0.629395 5.99316 0.629395C6.41016 0.629395 6.87842 0.65332 7.39795 0.701172C7.91748 0.742188 8.44385 0.824219 8.97705 0.947266C9.51025 1.06348 10.0298 1.22412 10.5356 1.4292C11.0483 1.63428 11.5029 1.89746 11.8994 2.21875C12.2959 2.54004 12.6138 2.92285 12.853 3.36719C13.0923 3.81152 13.2119 4.33447 13.2119 4.93604C13.2119 4.94971 13.2085 5.01123 13.2017 5.12061C13.1948 5.22314 13.1675 5.35986 13.1196 5.53076C13.0786 5.70166 13.0137 5.89648 12.9248 6.11523C12.8428 6.32715 12.7231 6.54932 12.5659 6.78174C12.4087 7.00732 12.2104 7.23291 11.9712 7.4585C11.7319 7.67725 11.4414 7.87891 11.0996 8.06348C11.5781 8.24805 11.9849 8.46338 12.3198 8.70947C12.6548 8.94873 12.9316 9.20508 13.1504 9.47852C13.376 9.74512 13.5503 10.0151 13.6733 10.2886C13.8032 10.5552 13.8989 10.8047 13.9604 11.0371C14.022 11.2695 14.0596 11.4712 14.0732 11.6421C14.0938 11.813 14.104 11.936 14.104 12.0112ZM9.60254 14.2773C9.63672 13.915 9.66064 13.5493 9.67432 13.1802C9.69482 12.8042 9.70508 12.4214 9.70508 12.0317C9.70508 11.6626 9.69482 11.2969 9.67432 10.9346C9.66064 10.5654 9.63672 10.1963 9.60254 9.82715C9.31543 9.71777 8.98047 9.62549 8.59766 9.55029C8.22168 9.46826 7.8252 9.40332 7.4082 9.35547C6.99805 9.30762 6.58447 9.27344 6.16748 9.25293C5.75049 9.22559 5.36426 9.21191 5.00879 9.21191H4.56787C4.51318 9.61523 4.46875 10.022 4.43457 10.4321C4.40723 10.8423 4.39355 11.2627 4.39355 11.6934C4.39355 12.1582 4.40723 12.623 4.43457 13.0879C4.46875 13.5527 4.51318 14.0107 4.56787 14.4619C4.87549 14.4619 5.23779 14.4619 5.65479 14.4619C6.07861 14.4551 6.51611 14.4482 6.96729 14.4414C7.42529 14.4277 7.87988 14.4106 8.33105 14.3901C8.78906 14.3628 9.21289 14.3252 9.60254 14.2773ZM8.76172 7.22266C8.80957 6.91504 8.84375 6.59033 8.86426 6.24854C8.88477 5.8999 8.89502 5.54443 8.89502 5.18213C8.89502 4.80615 8.88135 4.43018 8.854 4.0542C8.8335 3.67139 8.7959 3.29883 8.74121 2.93652C8.46777 2.91602 8.13965 2.89893 7.75684 2.88525C7.38086 2.86475 6.98779 2.85449 6.57764 2.85449C6.2085 2.85449 5.84961 2.86133 5.50098 2.875C5.15234 2.88184 4.84131 2.90234 4.56787 2.93652C4.52686 3.25781 4.49268 3.58936 4.46533 3.93115C4.44482 4.26611 4.43457 4.61475 4.43457 4.97705C4.43457 5.35986 4.44482 5.74268 4.46533 6.12549C4.49268 6.50146 4.52686 6.88086 4.56787 7.26367C4.69775 7.26367 4.8584 7.26367 5.0498 7.26367C5.24121 7.26367 5.44629 7.26367 5.66504 7.26367C5.88379 7.25684 6.11279 7.25342 6.35205 7.25342C6.59131 7.24658 6.82715 7.24316 7.05957 7.24316C7.59277 7.23633 8.16016 7.22949 8.76172 7.22266ZM30.7871 0.834473C30.0078 2.61865 29.2729 4.14307 28.5825 5.40771C27.8921 6.67236 27.2871 7.70801 26.7676 8.51465C26.1592 9.45801 25.5952 10.2373 25.0757 10.8525C25.062 11.0029 25.0518 11.1772 25.0449 11.3755C25.0381 11.5669 25.0347 11.7788 25.0347 12.0112C25.0347 12.3872 25.0415 12.7905 25.0552 13.2212C25.0688 13.6519 25.0859 14.0688 25.1064 14.4722C25.1338 14.8755 25.1611 15.2446 25.1885 15.5796C25.2227 15.9077 25.2568 16.1606 25.291 16.3384L19.5796 16.4409C19.6069 16.3247 19.6377 16.1367 19.6719 15.877C19.7129 15.6104 19.7505 15.313 19.7847 14.9849C19.8257 14.6499 19.8599 14.2979 19.8872 13.9287C19.9214 13.5596 19.9521 13.2144 19.9795 12.8931C20.0068 12.5649 20.0273 12.2778 20.041 12.0317C20.0615 11.7856 20.0752 11.6182 20.082 11.5293C19.7881 11.0713 19.4736 10.5723 19.1387 10.0322C18.8037 9.48535 18.4551 8.91455 18.0928 8.31982C17.7305 7.71826 17.3613 7.10303 16.9854 6.47412C16.6094 5.83838 16.2402 5.20264 15.8779 4.56689C15.5156 3.92432 15.1602 3.28857 14.8115 2.65967C14.4697 2.03076 14.1484 1.42236 13.8477 0.834473L19.6616 1.09082C19.8052 1.55566 19.9897 2.08887 20.2153 2.69043C20.4409 3.29199 20.6973 3.93457 20.9844 4.61816C21.2715 5.29492 21.5859 5.99219 21.9277 6.70996C22.2695 7.42773 22.625 8.13184 22.9941 8.82227C23.4863 7.91992 23.958 7.00391 24.4092 6.07422C24.6006 5.67773 24.7988 5.26074 25.0039 4.82324C25.209 4.38574 25.4072 3.94141 25.5986 3.49023C25.79 3.03223 25.9712 2.58105 26.1421 2.13672C26.313 1.68555 26.4634 1.25146 26.5933 0.834473H30.7871ZM43.6558 3.50049C43.1499 3.50049 42.6372 3.49707 42.1177 3.49023C41.605 3.4834 41.082 3.47998 40.5488 3.47998H39.6465C39.6465 5.58545 39.6602 7.69434 39.6875 9.80664C39.7148 11.9189 39.7866 14.0312 39.9028 16.1436H35.2373C35.3057 14.5986 35.374 13.0674 35.4424 11.5498C35.4697 10.9072 35.4971 10.2339 35.5244 9.52979C35.5518 8.82568 35.5791 8.125 35.6064 7.42773C35.6338 6.73047 35.6543 6.05371 35.668 5.39746C35.6885 4.73437 35.7056 4.11914 35.7192 3.55176C34.9331 3.57227 34.1572 3.59619 33.3916 3.62354C32.6328 3.65088 31.8672 3.68164 31.0947 3.71582V0.649902C32.1748 0.690918 33.2446 0.718262 34.3042 0.731934C35.3706 0.745605 36.4438 0.752441 37.5239 0.752441C38.563 0.752441 39.5918 0.745605 40.6104 0.731934C41.6289 0.718262 42.644 0.690918 43.6558 0.649902V3.50049ZM54.7095 9.52979C54.2651 9.49561 53.8208 9.47168 53.3765 9.45801C52.9321 9.4375 52.4878 9.42725 52.0435 9.42725C51.6128 9.42725 51.1821 9.4375 50.7515 9.45801C50.3208 9.47168 49.8833 9.49561 49.439 9.52979V11.2524C49.439 11.6626 49.4424 12.0591 49.4492 12.4419C49.4561 12.8179 49.4663 13.1699 49.48 13.498C49.9243 13.4844 50.396 13.4775 50.895 13.4775C51.4009 13.4775 51.9102 13.4775 52.4229 13.4775C52.9355 13.4775 53.4277 13.481 53.8994 13.4878C54.3711 13.4878 54.7915 13.4878 55.1606 13.4878C55.5845 13.4946 55.9878 13.498 56.3706 13.498C56.3638 13.5938 56.3569 13.6997 56.3501 13.8159C56.3433 13.9116 56.3364 14.0278 56.3296 14.1646C56.3296 14.3013 56.3296 14.4517 56.3296 14.6157C56.3296 14.8276 56.333 15.0566 56.3398 15.3027C56.3535 15.5488 56.3706 15.8018 56.3911 16.0615C56.1245 16.0479 55.8511 16.041 55.5708 16.041C55.2974 16.041 55.0308 16.041 54.771 16.041C53.1372 16.041 51.5171 16.0649 49.9106 16.1128C48.311 16.1675 46.6978 16.2495 45.0708 16.3589C45.0708 16.1538 45.0742 15.8667 45.0811 15.4976C45.0879 15.1284 45.0947 14.6978 45.1016 14.2056C45.1152 13.7065 45.1289 13.1631 45.1426 12.5752C45.1631 11.9805 45.1802 11.3618 45.1938 10.7192C45.2075 10.0767 45.2212 9.42041 45.2349 8.75049C45.2554 8.08057 45.269 7.4209 45.2759 6.77148C45.2896 6.11523 45.2998 5.48633 45.3066 4.88477C45.3135 4.27637 45.3169 3.7124 45.3169 3.19287C45.3169 2.69385 45.3135 2.25293 45.3066 1.87012C45.3066 1.48047 45.2964 1.15576 45.2759 0.895996C45.98 0.895996 46.6841 0.902832 47.3882 0.916504C48.0923 0.92334 48.8032 0.926758 49.521 0.926758C50.6011 0.926758 51.6846 0.909668 52.7715 0.875488C53.8584 0.841309 54.9727 0.766113 56.1143 0.649902C56.0801 0.882324 56.0562 1.10791 56.0425 1.32666C56.0356 1.53857 56.0322 1.74023 56.0322 1.93164C56.0322 2.11621 56.0356 2.28711 56.0425 2.44434C56.0493 2.59473 56.0596 2.72461 56.0732 2.83398C56.0869 2.95703 56.1006 3.06982 56.1143 3.17236C55.3145 3.21338 54.5249 3.24756 53.7456 3.2749C53.4106 3.28857 53.062 3.30225 52.6997 3.31592C52.3442 3.32275 51.9854 3.33301 51.623 3.34668C51.2676 3.35352 50.9189 3.36035 50.5771 3.36719C50.2422 3.37402 49.9312 3.37744 49.644 3.37744C49.6304 3.70557 49.6133 4.06104 49.5928 4.44385C49.5791 4.77197 49.562 5.1582 49.5415 5.60254C49.5278 6.04688 49.5142 6.52539 49.5005 7.03809C50.3345 7.02441 51.1753 6.99707 52.0229 6.95605C52.8774 6.91504 53.7729 6.85693 54.7095 6.78174C54.689 7.0415 54.6685 7.30469 54.6479 7.57129C54.6343 7.83105 54.6274 8.10107 54.6274 8.38135C54.6274 8.56592 54.6309 8.75391 54.6377 8.94531C54.6514 9.13672 54.6753 9.33154 54.7095 9.52979Z" fill="white"/>
<path d="M14.104 33.0112C14.104 33.6606 13.9775 34.2314 13.7246 34.7236C13.4717 35.209 13.1333 35.6294 12.7095 35.9849C12.2925 36.3403 11.8071 36.6343 11.2534 36.8667C10.6997 37.0923 10.1221 37.2734 9.52051 37.4102C8.92578 37.5469 8.32422 37.6426 7.71582 37.6973C7.11426 37.752 6.54688 37.7793 6.01367 37.7793C5.34375 37.7793 4.72852 37.7588 4.16797 37.7178C3.61426 37.6836 3.10156 37.6289 2.62988 37.5537C2.1582 37.4854 1.7207 37.3965 1.31738 37.2871C0.920898 37.1846 0.541504 37.0684 0.179199 36.9385C0.240723 35.6807 0.288574 34.4604 0.322754 33.2778C0.36377 32.0952 0.384277 30.9058 0.384277 29.7095C0.384277 28.52 0.36377 27.3203 0.322754 26.1104C0.288574 24.8936 0.240723 23.6289 0.179199 22.3164C1.11572 22.1045 2.0625 21.937 3.01953 21.814C3.9834 21.6909 4.97461 21.6294 5.99316 21.6294C6.41016 21.6294 6.87842 21.6533 7.39795 21.7012C7.91748 21.7422 8.44385 21.8242 8.97705 21.9473C9.51025 22.0635 10.0298 22.2241 10.5356 22.4292C11.0483 22.6343 11.5029 22.8975 11.8994 23.2188C12.2959 23.54 12.6138 23.9229 12.853 24.3672C13.0923 24.8115 13.2119 25.3345 13.2119 25.936C13.2119 25.9497 13.2085 26.0112 13.2017 26.1206C13.1948 26.2231 13.1675 26.3599 13.1196 26.5308C13.0786 26.7017 13.0137 26.8965 12.9248 27.1152C12.8428 27.3271 12.7231 27.5493 12.5659 27.7817C12.4087 28.0073 12.2104 28.2329 11.9712 28.4585C11.7319 28.6772 11.4414 28.8789 11.0996 29.0635C11.5781 29.248 11.9849 29.4634 12.3198 29.7095C12.6548 29.9487 12.9316 30.2051 13.1504 30.4785C13.376 30.7451 13.5503 31.0151 13.6733 31.2886C13.8032 31.5552 13.8989 31.8047 13.9604 32.0371C14.022 32.2695 14.0596 32.4712 14.0732 32.6421C14.0938 32.813 14.104 32.936 14.104 33.0112ZM9.60254 35.2773C9.63672 34.915 9.66064 34.5493 9.67432 34.1802C9.69482 33.8042 9.70508 33.4214 9.70508 33.0317C9.70508 32.6626 9.69482 32.2969 9.67432 31.9346C9.66064 31.5654 9.63672 31.1963 9.60254 30.8271C9.31543 30.7178 8.98047 30.6255 8.59766 30.5503C8.22168 30.4683 7.8252 30.4033 7.4082 30.3555C6.99805 30.3076 6.58447 30.2734 6.16748 30.2529C5.75049 30.2256 5.36426 30.2119 5.00879 30.2119H4.56787C4.51318 30.6152 4.46875 31.022 4.43457 31.4321C4.40723 31.8423 4.39355 32.2627 4.39355 32.6934C4.39355 33.1582 4.40723 33.623 4.43457 34.0879C4.46875 34.5527 4.51318 35.0107 4.56787 35.4619C4.87549 35.4619 5.23779 35.4619 5.65479 35.4619C6.07861 35.4551 6.51611 35.4482 6.96729 35.4414C7.42529 35.4277 7.87988 35.4106 8.33105 35.3901C8.78906 35.3628 9.21289 35.3252 9.60254 35.2773ZM8.76172 28.2227C8.80957 27.915 8.84375 27.5903 8.86426 27.2485C8.88477 26.8999 8.89502 26.5444 8.89502 26.1821C8.89502 25.8062 8.88135 25.4302 8.854 25.0542C8.8335 24.6714 8.7959 24.2988 8.74121 23.9365C8.46777 23.916 8.13965 23.8989 7.75684 23.8853C7.38086 23.8647 6.98779 23.8545 6.57764 23.8545C6.2085 23.8545 5.84961 23.8613 5.50098 23.875C5.15234 23.8818 4.84131 23.9023 4.56787 23.9365C4.52686 24.2578 4.49268 24.5894 4.46533 24.9312C4.44482 25.2661 4.43457 25.6147 4.43457 25.9771C4.43457 26.3599 4.44482 26.7427 4.46533 27.1255C4.49268 27.5015 4.52686 27.8809 4.56787 28.2637C4.69775 28.2637 4.8584 28.2637 5.0498 28.2637C5.24121 28.2637 5.44629 28.2637 5.66504 28.2637C5.88379 28.2568 6.11279 28.2534 6.35205 28.2534C6.59131 28.2466 6.82715 28.2432 7.05957 28.2432C7.59277 28.2363 8.16016 28.2295 8.76172 28.2227ZM29.4131 29.3301C29.4062 30.0615 29.3516 30.769 29.249 31.4526C29.1465 32.1362 28.9824 32.7822 28.7568 33.3906C28.5312 33.999 28.2373 34.5562 27.875 35.062C27.5127 35.561 27.0718 35.9917 26.5522 36.354C26.0327 36.7163 25.4277 36.9966 24.7373 37.1948C24.0469 37.3999 23.2607 37.5024 22.3789 37.5024C21.3398 37.5024 20.3931 37.3521 19.5386 37.0513C18.6841 36.7573 17.9526 36.2822 17.3442 35.626C16.7358 34.9629 16.2642 34.1016 15.9292 33.042C15.5942 31.9824 15.4268 30.6904 15.4268 29.166C15.4268 28.3662 15.4473 27.604 15.4883 26.8794C15.5293 26.1479 15.5874 25.478 15.6626 24.8696C15.7378 24.2612 15.8232 23.7178 15.9189 23.2393C16.0215 22.7539 16.1309 22.3574 16.2471 22.0498H20.2769C20.2495 22.2139 20.2085 22.501 20.1538 22.9111C20.106 23.3213 20.0547 23.8032 20 24.3569C19.9521 24.9106 19.9077 25.5122 19.8667 26.1616C19.8325 26.8042 19.8154 27.4365 19.8154 28.0586C19.8154 28.6396 19.8223 29.2378 19.8359 29.853C19.8564 30.4683 19.8838 31.0698 19.918 31.6577C19.959 32.2388 20.0068 32.7925 20.0615 33.3188C20.123 33.8384 20.1948 34.2964 20.2769 34.6929C20.5776 34.7339 20.9126 34.7646 21.2817 34.7852C21.6509 34.8057 22.0303 34.8159 22.4199 34.8159C22.8096 34.8159 23.1958 34.8057 23.5786 34.7852C23.9614 34.7646 24.3169 34.7339 24.645 34.6929C24.6997 34.2964 24.7441 33.8384 24.7783 33.3188C24.8125 32.7993 24.8398 32.249 24.8604 31.668C24.8809 31.0869 24.8945 30.4922 24.9014 29.8838C24.915 29.2686 24.9219 28.6738 24.9219 28.0996C24.9219 27.4707 24.915 26.8794 24.9014 26.3257C24.8877 25.7651 24.8672 25.2354 24.8398 24.7363C24.8125 24.2373 24.7817 23.7656 24.7476 23.3213C24.7202 22.877 24.686 22.4531 24.645 22.0498H28.5723C28.7568 22.9727 28.9038 23.7998 29.0132 24.5312C29.1226 25.2559 29.208 25.9121 29.2695 26.5C29.3311 27.0811 29.3687 27.6006 29.3823 28.0586C29.4028 28.5166 29.4131 28.9404 29.4131 29.3301ZM44.0044 26.7769C44.0044 27.3101 43.9189 27.8057 43.748 28.2637C43.5771 28.7148 43.3311 29.1318 43.0098 29.5146C42.6885 29.8906 42.2988 30.2324 41.8408 30.54C41.3828 30.8477 40.8667 31.1177 40.2925 31.3501L44.8247 36.959L40.0771 37.4819L37.0933 32.2524C36.8813 32.2935 36.6626 32.3311 36.437 32.3652C36.2114 32.3994 35.9824 32.4336 35.75 32.4678C35.8047 33.1719 35.8696 33.9067 35.9448 34.6724C36.0269 35.438 36.1157 36.2549 36.2114 37.123L31.3613 37.4614C31.498 35.7046 31.604 33.958 31.6792 32.2217C31.7612 30.4785 31.8022 28.7251 31.8022 26.9614C31.8022 26.5034 31.7988 26.0864 31.792 25.7104C31.792 25.3345 31.7852 24.9688 31.7715 24.6133C31.7646 24.2578 31.751 23.8921 31.7305 23.5161C31.71 23.1401 31.686 22.7197 31.6587 22.2549C32.4858 22.002 33.3267 21.8208 34.1812 21.7114C35.0425 21.6021 35.9312 21.5474 36.8472 21.5474C37.3052 21.5474 37.8008 21.5781 38.334 21.6396C38.8672 21.7012 39.397 21.8071 39.9233 21.9575C40.4565 22.1079 40.9658 22.3096 41.4512 22.5625C41.9434 22.8154 42.3774 23.1367 42.7534 23.5264C43.1362 23.916 43.4404 24.3774 43.666 24.9106C43.8916 25.4438 44.0044 26.0659 44.0044 26.7769ZM35.4834 23.7109C35.4834 24.832 35.4902 25.9155 35.5039 26.9614C35.5244 28.0005 35.5654 29.0703 35.627 30.1709H36.0474C36.6489 30.1709 37.2539 30.1538 37.8623 30.1196C38.4707 30.0854 39.0483 30.0205 39.5952 29.9248C39.6909 29.5557 39.7593 29.1353 39.8003 28.6636C39.8481 28.1851 39.8721 27.6895 39.8721 27.1768C39.8721 26.8486 39.8618 26.5205 39.8413 26.1924C39.8208 25.8574 39.7935 25.5361 39.7593 25.2285C39.7251 24.9141 39.6772 24.6167 39.6157 24.3364C39.561 24.0562 39.4995 23.8032 39.4312 23.5776C39.3354 23.564 39.2227 23.5537 39.0928 23.5469C38.9697 23.54 38.8296 23.5366 38.6724 23.5366C38.3579 23.5366 38.0161 23.5469 37.647 23.5674C37.2847 23.5879 36.9395 23.6084 36.6113 23.6289C36.2354 23.6562 35.8594 23.6836 35.4834 23.7109ZM59.0879 32.7139C59.0879 33.6025 58.9102 34.3545 58.5547 34.9697C58.2061 35.5781 57.7173 36.0737 57.0884 36.4565C56.4663 36.8325 55.7246 37.1025 54.8633 37.2666C54.002 37.4375 53.0654 37.5229 52.0537 37.5229C51.5957 37.5229 51.1206 37.4785 50.6284 37.3896C50.1362 37.3076 49.6509 37.1743 49.1724 36.9897C48.6938 36.7983 48.2358 36.5591 47.7983 36.272C47.3608 35.9849 46.9678 35.6396 46.6191 35.2363C46.2773 34.8262 45.9868 34.3579 45.7476 33.8315C45.5151 33.3052 45.3647 32.7104 45.2964 32.0474L49.7671 31.9551C49.7534 32.1465 49.7466 32.3413 49.7466 32.5396C49.7466 32.7378 49.7466 32.9429 49.7466 33.1548C49.7466 33.7495 49.7671 34.3579 49.8081 34.98C50.2114 35.0278 50.6147 35.062 51.0181 35.0825C51.4214 35.103 51.8247 35.1133 52.228 35.1133C52.6313 35.1133 53.0312 35.103 53.4277 35.0825C53.8242 35.062 54.2275 35.0278 54.6377 34.98C54.6719 34.7476 54.6992 34.522 54.7197 34.3032C54.7402 34.0776 54.7505 33.8486 54.7505 33.6162C54.7505 33.2402 54.7266 32.8608 54.6787 32.478C54.6309 32.0952 54.5693 31.7124 54.4941 31.3296C54.0156 31.2749 53.4653 31.2134 52.8433 31.145C52.2212 31.0767 51.582 30.9775 50.9258 30.8477C50.2764 30.7109 49.6372 30.5332 49.0083 30.3145C48.3862 30.0889 47.8291 29.7949 47.3369 29.4326C46.8447 29.0635 46.4482 28.6123 46.1475 28.0791C45.8467 27.5459 45.6963 26.8999 45.6963 26.1411C45.6963 25.6147 45.792 25.1362 45.9834 24.7056C46.1816 24.2749 46.4448 23.8921 46.7729 23.5571C47.1079 23.2153 47.4941 22.918 47.9316 22.665C48.376 22.4121 48.8408 22.2036 49.3262 22.0396C49.8184 21.8755 50.3174 21.7524 50.8232 21.6704C51.3291 21.5884 51.8179 21.5474 52.2896 21.5474C53.3218 21.5474 54.231 21.708 55.0171 22.0293C55.8032 22.3506 56.4629 22.771 56.9961 23.2905C57.5361 23.8032 57.9531 24.3843 58.2471 25.0337C58.541 25.6831 58.7119 26.3325 58.7598 26.9819L54.0737 27.4844C54.1079 27.2246 54.1284 26.9648 54.1353 26.7051C54.1489 26.4385 54.1558 26.1753 54.1558 25.9155C54.1558 25.3208 54.1147 24.7192 54.0327 24.1108C53.8003 24.0767 53.5679 24.0527 53.3354 24.0391C53.1099 24.0254 52.8809 24.0186 52.6484 24.0186C51.7256 24.0186 50.7925 24.1313 49.8491 24.3569C49.8354 24.5278 49.8286 24.6953 49.8286 24.8594C49.8286 25.0234 49.8286 25.1841 49.8286 25.3413C49.8286 25.8198 49.8457 26.2915 49.8799 26.7563C49.9209 27.2144 49.9961 27.6758 50.1055 28.1406C50.6729 28.2158 51.2881 28.2979 51.9512 28.3867C52.6143 28.4688 53.2773 28.5815 53.9404 28.7251C54.6104 28.8618 55.2529 29.0361 55.8682 29.248C56.4902 29.4531 57.0371 29.7129 57.5088 30.0273C57.9873 30.335 58.3701 30.7109 58.6572 31.1553C58.9443 31.5928 59.0879 32.1123 59.0879 32.7139ZM72.2231 24.5005C71.7173 24.5005 71.2046 24.4971 70.6851 24.4902C70.1724 24.4834 69.6494 24.48 69.1162 24.48H68.2139C68.2139 26.5854 68.2275 28.6943 68.2549 30.8066C68.2822 32.9189 68.354 35.0312 68.4702 37.1436H63.8047C63.873 35.5986 63.9414 34.0674 64.0098 32.5498C64.0371 31.9072 64.0645 31.2339 64.0918 30.5298C64.1191 29.8257 64.1465 29.125 64.1738 28.4277C64.2012 27.7305 64.2217 27.0537 64.2354 26.3975C64.2559 25.7344 64.2729 25.1191 64.2866 24.5518C63.5005 24.5723 62.7246 24.5962 61.959 24.6235C61.2002 24.6509 60.4346 24.6816 59.6621 24.7158V21.6499C60.7422 21.6909 61.812 21.7183 62.8716 21.7319C63.938 21.7456 65.0112 21.7524 66.0913 21.7524C67.1304 21.7524 68.1592 21.7456 69.1777 21.7319C70.1963 21.7183 71.2114 21.6909 72.2231 21.6499V24.5005Z" fill="#FF0000"/>
</svg>
